HIERARCHY
ROOT Hips
{
	OFFSET 0.000000 0.000000 0.000000 
	CHANNELS 6 Xposition Yposition Zposition Zrotation Yrotation Xrotation
	JOINT LeftUpLeg
	{
		OFFSET 1.363060 -1.794630 0.839290 
		CHANNELS 3 Zrotation Yrotation Xrotation
		JOINT LeftLeg
		{
			OFFSET 2.448110 -6.726130 0.000000 
			CHANNELS 3 Zrotation Yrotation Xrotation
			JOINT LeftFoot
			{
				OFFSET 2.562200 -7.039590 0.000000 
				CHANNELS 3 Zrotation Yrotation Xrotation
				JOINT LeftToeBase
				{
					OFFSET 0.157640 -0.433110 2.322550 
					CHANNELS 3 Zrotation Yrotation Xrotation
					End Site
					{
						OFFSET 0.000000 0.000000 0.000000 
					}
				}
			}
		}
	}
	JOINT RightUpLeg
	{
		OFFSET -1.305520 -1.794630 0.839290 
		CHANNELS 3 Zrotation Yrotation Xrotation
		JOINT RightLeg
		{
			OFFSET -2.542530 -6.985550 0.000000 
			CHANNELS 3 Zrotation Yrotation Xrotation
			JOINT RightFoot
			{
				OFFSET -2.568260 -7.056230 0.000000 
				CHANNELS 3 Zrotation Yrotation Xrotation
				JOINT RightToeBase
				{
					OFFSET -0.164730 -0.452590 2.363150 
					CHANNELS 3 Zrotation Yrotation Xrotation
					End Site
					{
						OFFSET 0.000000 0.000000 0.000000 
					}
				}
			}
		}
	}
	JOINT Spine
	{
		OFFSET 0.028270 2.035590 -0.193380 
		CHANNELS 3 Zrotation Yrotation Xrotation
		JOINT Spine1
		{
			OFFSET 0.056720 2.048850 -0.042750 
			CHANNELS 3 Zrotation Yrotation Xrotation
			JOINT Neck1
			{
				OFFSET -0.054170 1.746240 0.172020 
				CHANNELS 3 Zrotation Yrotation Xrotation
				JOINT Head
				{
					OFFSET 0.104070 1.761360 -0.123970 
					CHANNELS 3 Zrotation Yrotation Xrotation
					End Site
					{
						OFFSET 0.000000 0.000000 0.000000 
					}
				}
			}
			JOINT LeftArm
			{
				OFFSET 3.362410 1.200890 -0.311210 
				CHANNELS 3 Zrotation Yrotation Xrotation
				JOINT LeftForeArm
				{
					OFFSET 4.983000 -0.000000 -0.000000 
					CHANNELS 3 Zrotation Yrotation Xrotation
					JOINT LeftHand
					{
						OFFSET 3.483560 -0.000000 -0.000000 
						CHANNELS 3 Zrotation Yrotation Xrotation
						JOINT LeftHandIndex1
						{
							OFFSET 0.715260 -0.000000 -0.000000 
							CHANNELS 3 Zrotation Yrotation Xrotation
							End Site
							{
								OFFSET 0.000000 0.000000 0.000000 
							}
						}
					}
				}
			}
			JOINT RightArm
			{
				OFFSET -3.136600 1.374050 -0.404650 
				CHANNELS 3 Zrotation Yrotation Xrotation
				JOINT RightForeArm
				{
					OFFSET -5.241900 -0.000000 -0.000000 
					CHANNELS 3 Zrotation Yrotation Xrotation
					JOINT RightHand
					{
						OFFSET -3.444170 -0.000000 -0.000000 
						CHANNELS 3 Zrotation Yrotation Xrotation
						JOINT RightHandIndex1
						{
							OFFSET -0.622530 -0.000000 -0.000000 
							CHANNELS 3 Zrotation Yrotation Xrotation
							End Site
							{
								OFFSET 0.000000 0.000000 0.000000 
							}
						}
					}
				}
			}
		}
	}
}
MOTION
Frames: 18
Frame Time: 0.041667
-14.594035 18.038226 2.473601 -46.924041 -74.987645 51.036277 -15.286618 5.153920 -32.875861 2.950194 12.863223 38.077854 -1.865888 9.999344 3.604255 0.710700 -5.388000 -15.018500 33.274165 -10.195567 -20.142857 -6.204409 -14.744770 49.796601 -1.328798 13.281035 17.048103 -0.713300 5.397400 -15.045500 0.670230 0.266695 2.392366 -1.702037 0.188893 -4.532906 7.552784 -8.100820 17.798009 1.448100 -3.599600 3.053800 -59.023350 4.598305 -21.140410 14.780759 -20.891885 -3.780907 -0.398426 0.712215 21.234851 -7.125000 0.000000 0.000000 74.647085 0.428443 18.759562 -16.293206 22.465282 -4.477324 2.141050 -0.400492 41.525463 7.125000 0.000000 0.000000 
-14.444513 17.991650 2.499687 -47.841019 -75.293057 52.319130 -17.237837 7.795235 -34.621162 2.775703 12.732304 37.542914 -2.137823 11.142292 1.868614 0.473100 -4.411100 -12.236200 34.547587 -11.279105 -19.387982 -5.289819 -13.918994 46.280214 -1.410560 11.311082 19.388296 -0.749200 5.528700 -15.422800 0.811061 -0.044025 2.265016 -1.641991 0.046338 -4.719327 7.492344 -9.124362 16.671725 1.586600 -4.182800 2.654700 -62.230055 5.251538 -17.734264 15.445607 -21.740126 -3.995078 -0.418383 0.678653 16.551728 -7.125000 0.000000 0.000000 75.445991 1.438801 18.853108 -16.217654 22.285977 -4.421257 2.138660 -0.392657 40.929001 7.125000 0.000000 0.000000 
-14.289195 17.939777 2.530071 -48.581024 -75.657152 53.401061 -18.514670 9.199903 -35.969180 2.664305 12.630116 37.132826 -2.143484 11.208451 2.111974 1.042900 -6.494700 -18.226600 35.038520 -10.673595 -17.863347 -4.372215 -12.998368 42.633787 -1.491414 10.496845 20.989578 -0.037500 1.250100 -3.437200 0.966725 -0.337029 2.160288 -1.585366 -0.084891 -4.888883 7.534046 -10.231637 14.968910 1.813800 -4.816300 2.029800 -65.537179 5.621066 -14.173705 16.184414 -22.635185 -4.223560 -0.423350 0.651209 11.820036 -7.125000 0.000000 0.000000 76.106034 2.313496 19.252983 -16.308687 22.323793 -4.440283 2.131617 -0.386182 40.326355 7.125000 0.000000 0.000000 
-14.121283 17.848225 2.563554 -48.691666 -76.114618 53.935646 -19.180217 9.298811 -36.690651 2.566641 12.579565 36.966372 -1.889162 9.935027 1.448369 0.747000 -5.520600 -15.399600 35.037747 -9.516832 -15.815452 -3.672544 -12.189115 39.663095 -1.315911 12.570919 13.953430 -0.237600 3.137300 -8.661300 1.103902 -0.602313 2.067995 -1.588905 -0.205176 -5.021049 7.553277 -11.394307 13.070549 2.052000 -5.463300 1.375300 -68.856812 5.568631 -10.542857 16.913766 -23.486094 -4.451095 -0.420605 0.630936 7.274137 -7.125000 0.000000 0.000000 76.526610 3.317325 19.887912 -16.398259 22.372612 -4.467280 2.135175 -0.375520 39.925629 7.125000 0.000000 0.000000 
-13.940778 17.726489 2.593838 -47.221323 -76.775803 52.776799 -19.403808 8.220891 -36.919630 2.577551 12.664978 37.276633 -1.450970 7.796624 0.833121 0.367000 -3.891200 -10.770800 34.497504 -8.308892 -14.002264 -3.192515 -11.548253 37.233540 -1.608197 14.845038 4.748178 -2.791600 10.349800 -30.117000 1.211445 -0.954567 2.018464 -1.455399 -0.363109 -5.207486 7.664184 -12.478197 11.252384 2.332000 -6.050000 0.805100 -72.226473 5.273431 -6.940012 17.758660 -24.442776 -4.725864 -0.409886 0.612601 3.342867 -7.125000 0.000000 0.000000 76.650786 4.493159 20.942450 -16.445240 22.375081 -4.480038 2.145248 -0.358066 39.635532 7.125000 0.000000 0.000000 
-13.743981 17.569872 2.612428 -45.330663 -77.441957 50.908340 -19.568354 7.176833 -37.255810 2.736618 12.873375 38.027391 -0.975418 5.375661 1.323265 0.314500 -3.604900 -9.967700 33.750465 -6.594306 -12.762356 -2.821229 -11.095330 35.536156 -1.792103 14.546536 1.724472 -1.377400 7.426800 -20.986200 1.320431 -1.331622 2.095289 -1.233017 -0.528241 -5.393433 7.862860 -13.536855 9.476372 2.615800 -6.605600 0.294800 -75.405199 4.614482 -3.403823 18.706975 -25.477005 -5.036061 -0.391444 0.592393 0.786924 -7.125000 0.000000 0.000000 76.575188 6.000905 22.156994 -16.317126 22.152068 -4.423035 2.159143 -0.365013 39.870584 7.125000 0.000000 0.000000 
-13.532192 17.461129 2.630718 -43.210675 -78.048070 48.590880 -19.813686 6.584336 -37.808256 3.007869 13.172708 39.108904 -0.556504 3.003854 2.679969 0.207300 -2.931400 -8.087700 33.215936 -5.715543 -12.070533 -2.644248 -10.887660 34.683274 -1.990987 13.400215 -1.915275 -1.001300 6.367800 -17.855500 1.382499 -1.677374 2.287985 -1.110634 -0.678245 -5.617412 8.123082 -14.687526 7.839888 2.878600 -7.194700 -0.118700 -78.206737 3.522526 0.156842 19.616490 -26.441171 -5.354440 -0.352714 0.586057 0.174934 -7.125000 0.000000 0.000000 76.452942 7.750204 23.080035 -16.014489 21.693968 -4.294251 2.165693 -0.411716 41.155094 7.125000 0.000000 0.000000 
-13.309309 17.389766 2.652507 -40.005217 -78.683018 45.244462 -20.518865 6.452009 -39.004122 3.442621 13.635482 40.761997 -0.276358 1.151998 4.629678 0.208000 -2.936700 -8.102500 32.591345 -5.040429 -11.748302 -2.473488 -10.719344 33.984104 -2.062074 11.292495 -5.054179 -1.090700 6.637000 -18.644200 1.399931 -2.013381 2.374889 -0.943228 -0.812805 -6.203928 9.152175 -15.802245 6.581763 3.462800 -7.774000 -0.262500 -80.748780 2.432113 3.898898 20.535963 -27.423975 -5.729010 -0.300756 0.593816 1.305227 -7.125000 0.000000 0.000000 76.241581 9.311494 23.743976 -15.692369 21.194995 -4.151445 2.140123 -0.496182 43.418214 7.125000 0.000000 0.000000 
-13.084927 17.352086 2.675095 -33.363079 -79.689607 38.704185 -21.994834 6.457425 -40.610429 3.909920 14.142091 42.559672 -0.068844 -0.454280 7.230463 0.333600 -3.712000 -10.267800 31.224661 -4.214921 -12.029391 -2.388620 -10.701546 33.823977 -1.966055 8.701833 -7.464572 -1.429800 7.560800 -21.387900 1.289636 -2.343977 2.332898 -0.510386 -0.911646 -7.032544 10.830670 -16.805148 5.397136 4.323000 -8.311800 -0.278600 -82.955402 1.592350 8.211719 21.738378 -28.723596 -6.276481 -0.237888 0.601093 3.189591 -7.125000 0.000000 0.000000 75.695812 10.322776 25.199770 -15.530269 20.914185 -4.066174 2.085582 -0.570569 44.962625 7.125000 0.000000 0.000000 
-12.870340 17.321402 2.695584 -38.756500 -78.195224 44.753803 -20.025434 5.733059 -42.490242 4.425021 14.546605 44.227393 0.216166 -2.814285 10.722603 0.785500 -5.658100 -15.795600 33.349321 -3.253419 -13.207174 -2.255116 -10.660995 33.522955 -1.692375 6.737574 -8.168866 -1.234400 7.045700 -19.850900 1.793671 -2.475053 2.195196 -1.082602 -1.027906 -7.525051 11.992193 -17.692450 3.631691 4.383400 -8.797800 -0.615600 -84.560481 1.004242 13.166142 23.479741 -30.567732 -7.137489 -0.158066 0.599483 4.578866 -7.125000 0.000000 0.000000 75.096029 11.156101 26.342782 -15.591908 20.924562 -4.065976 2.005895 -0.645398 46.019574 7.125000 0.000000 0.000000 
-12.680340 17.334295 2.713475 -39.285117 -77.574139 45.758101 -18.453281 4.430921 -43.546685 4.816419 14.876544 45.598152 0.553433 -5.780534 16.112067 0.305900 -3.556000 -9.830800 33.923550 -2.815627 -14.216928 -2.138717 -10.569103 33.132741 -1.581571 5.950157 -8.410904 -1.052300 6.522800 -18.309200 1.971183 -2.714236 2.151471 -1.390632 -1.182799 -7.820804 10.932038 -18.544302 2.140348 4.525000 -9.196000 -1.487400 -85.540963 0.773462 18.308019 25.751763 -32.872299 -8.351400 -0.074332 0.584847 5.346325 -7.125000 0.000000 0.000000 74.448496 11.745785 27.638842 -15.827747 21.190798 -4.150285 1.960851 -0.670073 46.061733 7.125000 0.000000 0.000000 
-12.513827 17.399861 2.721870 -38.026909 -77.349639 44.819205 -16.781890 2.813804 -44.018022 5.075472 15.113899 46.696090 1.034265 -9.965477 24.548345 0.792200 -5.681400 -15.862900 33.774900 -2.790955 -14.942758 -2.014188 -10.403293 32.549541 -1.664664 6.396760 -8.363025 -0.982600 6.309900 -17.686200 2.100904 -2.775359 2.418976 -1.375337 -1.173667 -7.664559 14.019880 -19.159482 0.745200 5.143600 -9.626700 -1.186900 -86.001892 -0.198491 23.602432 28.241191 -35.228108 -9.762575 0.015026 0.558041 6.559372 -7.125000 0.000000 0.000000 73.352179 12.744120 28.406049 -16.128607 21.549130 -4.273181 1.943485 -0.666433 45.706597 7.125000 0.000000 0.000000 
-12.369103 17.499009 2.721371 -34.983602 -77.463682 42.144162 -15.425141 1.083422 -44.044402 5.320448 15.342259 47.449595 1.904682 -10.571558 34.756797 0.000100 -0.059800 -0.164300 33.006822 -2.913286 -15.758855 -1.928030 -10.284173 32.145618 -1.695496 6.866710 -7.572894 -1.001700 6.369000 -17.859000 2.086141 -3.025411 2.533295 -1.094137 -1.269541 -7.651021 14.421454 -19.705482 0.231481 5.175900 -9.929800 -1.254200 -85.780461 -0.549604 28.510530 30.946523 -37.583310 -11.396375 0.134761 0.521747 8.724845 -7.125000 0.000000 0.000000 72.396007 13.182545 28.838098 -16.445833 21.934676 -4.403626 1.911655 -0.680439 45.876427 7.125000 0.000000 0.000000 
-12.242670 17.594559 2.714274 -31.946532 -77.659224 39.591823 -13.997284 -0.896758 -43.625768 5.701933 15.639999 48.456281 2.525447 -10.432120 39.771753 0.220800 3.024800 8.347800 32.115385 -2.640937 -16.667163 -1.875847 -10.237298 31.961354 -1.658792 7.230878 -6.154268 -1.165900 6.854400 -19.284600 2.018622 -3.253552 2.568822 -0.770263 -1.346160 -7.615742 15.367158 -20.182499 0.110703 5.428200 -10.215200 -1.124700 -84.834064 -0.486193 32.974804 33.883432 -39.913903 -13.298659 0.290284 0.460629 11.866111 -7.125000 0.000000 0.000000 71.511992 13.191531 28.757573 -16.697833 22.247725 -4.514285 1.862776 -0.734195 46.799971 7.125000 0.000000 0.000000 
-12.122633 17.679914 2.705179 -30.474426 -77.950232 38.627019 -12.143284 -3.067798 -42.975713 6.130954 15.969686 49.900186 2.218293 -11.557474 38.426252 0.357300 3.840400 10.628000 31.290494 -1.398825 -17.283267 -1.861285 -10.265572 31.988900 -1.682601 7.820148 -5.096136 -1.320300 7.277500 -20.540100 1.972190 -3.342186 2.551656 -0.508606 -1.363280 -7.654325 16.511379 -20.621963 0.178400 5.766400 -10.484000 -0.881400 -83.324290 -0.249192 36.806640 37.103788 -42.214700 -15.537833 0.451953 0.364006 15.839989 -7.125000 0.000000 0.000000 70.605923 12.866259 28.162381 -16.893802 22.500420 -4.605991 1.800069 -0.810656 48.352776 7.125000 0.000000 0.000000 
-12.009792 17.744980 2.706079 -29.684430 -78.377015 38.300277 -9.677752 -5.883557 -41.779888 6.653352 16.345889 51.905396 1.101322 -15.819521 31.890618 0.016400 -0.828100 -2.275900 30.248361 0.761474 -17.505131 -1.891630 -10.349647 32.215740 -1.766341 9.019191 -3.747117 -0.822300 5.785900 -16.164300 1.923675 -3.432825 2.495679 -0.303308 -1.392350 -7.768988 17.178507 -20.945233 0.336562 5.940700 -10.672400 -0.685300 -81.408184 0.172196 39.759179 40.515502 -44.388661 -18.079552 0.583966 0.247323 20.027027 -7.125000 0.000000 0.000000 69.564311 12.253819 27.513026 -16.994339 22.668845 -4.676448 1.761780 -0.884644 49.900747 7.125000 0.000000 0.000000 
-11.911044 17.824038 2.718572 -28.229297 -78.945997 37.247579 -7.454998 -8.799187 -40.221380 7.408666 16.802683 54.106524 0.453635 -17.148455 25.303867 0.173100 -2.680000 -7.389100 28.719815 3.557831 -17.284526 -1.914377 -10.407000 32.351518 -1.947841 10.667521 -3.057246 -1.063400 6.556200 -18.407100 1.842890 -3.632435 2.437368 -0.096991 -1.474462 -7.856162 17.538550 -21.139284 0.522046 6.016700 -10.778300 -0.519700 -79.225081 0.818080 41.882810 44.130442 -46.417081 -20.901197 0.661137 0.137672 23.096286 -7.125000 0.000000 0.000000 68.242109 11.542336 27.272617 -16.850828 22.592431 -4.673933 1.791744 -0.939502 50.772336 7.125000 0.000000 0.000000 
-11.816693 17.878410 2.740261 -26.805363 -79.545858 36.217965 -5.331104 -11.750408 -38.570420 8.263078 17.274754 56.458559 0.177257 -17.175878 20.212614 0.322900 -3.652200 -10.100300 27.056663 7.523260 -16.506702 -1.926279 -10.437320 32.414578 -2.095108 12.141131 -2.597380 -1.242800 7.068700 -19.919100 1.797273 -3.884121 2.342760 0.121517 -1.582988 -7.967446 17.826307 -21.267759 0.689244 6.097100 -10.842600 -0.348700 -76.886800 1.681327 43.408692 47.982600 -48.288443 -23.997521 0.694425 0.050413 24.157527 -7.125000 0.000000 0.000000 66.643529 10.745659 27.200770 -16.493473 22.283682 -4.589761 1.852667 -0.983118 51.455100 7.125000 0.000000 0.000000 
